<svg width="2048" height="512" viewBox="0 0 2048 512" fill="none" xmlns="http://www.w3.org/2000/svg">
<path d="M340.863 186.128C348.998 192.287 350.168 202.991 345.371 211.664C344.949 212.357 342.848 216.092 342.352 216.255C342.216 216.152 342.179 216.017 342.249 215.848C347.009 205.168 346.648 192.109 336.642 184.602C336.492 184.471 336.228 184.379 335.994 184.145C335.526 183.911 335.481 183.816 335.27 183.348C335.462 176.233 333.674 169.447 327.805 164.912C327.688 164.776 327.609 164.621 327.567 164.443C328.283 164.481 328.914 164.734 329.462 165.211C334.395 168.239 337.657 173.224 336.88 179.182C336.927 180.45 335.57 182.589 336.632 183.582C338.055 184.41 339.464 185.257 340.863 186.128Z" fill="#F7F3E8"/>
<path d="M240.366 141.121C278.858 130.614 322.858 122.526 362.665 127.773C371.651 128.737 380.272 131.035 388.538 134.667C391.463 135.987 394.229 137.583 396.841 139.446C398.348 140.611 399.715 141.922 400.95 143.368C406.028 149.171 406.473 156.178 403.3 163.058C403.253 163.559 403.047 163.985 402.691 164.336C402.322 164.046 402.373 163.185 402.916 163.105C407.784 144.73 387.443 136.651 373.018 134.129C363.853 132.547 354.642 132.196 345.389 133.076C336.038 133.988 326.827 135.678 317.761 138.149C315.056 138.828 312.388 139.633 309.758 140.56C307.881 141.102 306.032 141.725 304.207 142.422C301.656 143.302 299.119 144.238 296.606 145.221C271.205 154.498 248.534 169.821 224.303 181.649C208.568 189.175 190.253 194.819 172.669 193.963C161.418 193.495 151.715 190.953 141.395 186.638C141.011 186.526 140.889 186.296 141.02 185.941C171.752 165.82 205.217 151.577 240.366 141.121Z" fill="#F7F3E8"/>
<path d="M278.942 474.285C262.547 489.655 232.358 485.073 212.902 478.507C184.89 469.188 154.584 449.732 140.201 423.236C138.404 420.83 140.496 416.969 140.608 414.24C141.493 407.44 141.755 400.62 141.385 393.773C141.357 392.378 141.282 390.979 141.161 389.589C140.992 386.921 140.744 384.262 140.421 381.609C140.061 378.608 139.668 375.608 139.247 372.613C138.189 366.346 137.117 358.497 135.09 352.562C135.053 352.562 135.009 352.405 134.972 352.405C134.86 352.147 134.866 352.057 134.978 351.813C135.165 351.846 135.315 351.944 135.418 352.113C136.162 353.882 136.958 355.632 137.814 357.355C151.308 386.256 176.905 408.497 200.569 429.044C207.468 434.811 214.718 440.104 222.309 444.915C237.151 454.492 257.253 462.041 274.701 455.634C275.067 455.783 275.198 456.059 275.095 456.467C274.43 459.092 273.714 461.704 272.946 464.297C271.889 467.25 270.793 470.18 269.651 473.091C269.913 473.279 270.171 473.246 270.424 473.002C272.109 471.58 273.691 470.049 275.174 468.416C280.617 462.64 283.65 454.183 285.176 446.526C285.401 446.114 285.05 443.455 285.958 444.05C289.627 454.693 287.044 466.422 278.942 474.285Z" fill="#F7F3E8"/>
<path d="M130.77 424.265C130.63 422.684 130.639 421.102 130.803 419.524C130.944 418.991 130.719 418.069 131.206 417.727C131.669 419.323 132.245 420.896 132.923 422.44C133.485 423.788 134.117 425.108 134.819 426.39C147.741 449.82 171.888 467.489 195.701 478.712C198.935 480.145 202.184 481.535 205.451 482.887C208.184 483.926 210.931 484.881 213.702 485.752C213.482 485.939 213.225 486.037 212.925 486.037C207.58 484.759 202.268 483.36 196.988 481.834C183.57 477.659 171.569 471.851 160.093 463.721C150.489 456.593 142.279 448.88 135.97 438.616C134.29 435.803 132.956 432.831 131.964 429.704C131.449 427.916 131.051 426.105 130.77 424.265Z" fill="#F7F3E8"/>
<path d="M101.345 215.825C100.961 215.684 100.732 215.413 100.647 215.01C111.529 215.839 123.179 208.135 129.385 199.556C130.335 198.264 131.121 196.883 131.749 195.423C131.861 195.9 131.852 196.387 131.721 196.879C127.555 211.303 116.556 219.269 101.345 215.825Z" fill="#F7F3E8"/>
<path d="M95.1754 189.754C92.2315 171.987 83.2358 155.742 83.4932 137.483C83.3106 120.849 90.7665 104.412 99.8745 90.8294C110.71 74.7101 123.056 64.7081 139.194 54.327C139.368 54.2241 139.513 54.2475 139.63 54.3973C134.804 61.6986 131.64 69.6693 130.133 78.3C124.961 107.796 133.035 139.543 140.903 167.934C141.015 168.21 141.01 168.477 140.879 168.734C125.331 177.707 110.78 188.074 97.2207 199.835C97.0991 199.981 96.968 199.99 96.8323 199.878C96.2847 196.503 95.7324 193.128 95.1754 189.754Z" fill="#F7F3E8"/>
<path d="M207.131 277.409C209.635 278.486 211.867 276.515 211.418 273.941C209.888 269.251 202.226 274.021 207.131 277.409Z" fill="#F7F3E8"/>
<path d="M289.674 262.732C290.273 265.413 293.554 265.872 294.603 263.204C295.679 258.824 289.726 258.206 289.674 262.732Z" fill="#F7F3E8"/>
<path d="M298.558 155.537C308.751 154.521 315.065 160.91 319.615 169.171C327.328 184.396 329.181 202.374 328.952 219.218C328.559 232.276 325.549 245.049 324.613 258.042C324.398 260.078 324.426 262.114 324.684 264.15C325.4 272.34 330.164 278.551 332.036 286.269C336.235 305.351 330.946 323.357 325.006 341.362C319.137 359.059 311.737 376.287 307.558 394.503C304.094 408.184 304.689 422.834 290.788 430.692C268.748 442.931 240.835 439.341 219.061 428.258C196.483 416.627 174.555 399.179 159.218 378.833C152.885 369.697 147.545 360.013 143.192 349.782C140.337 343.141 135.162 329.842 134.833 329.774C134.504 329.705 134.39 329.773 134.314 329.914C134.236 330.055 128.926 337.655 123.993 338.516C123.188 338.666 122.383 338.765 121.569 338.802C104.804 338.732 87.5144 315.887 81.8933 301.546C81.3691 300.338 80.8867 299.112 80.4421 297.872C77.6432 290.388 76.2629 282.651 76.3097 274.667C76.3238 260.298 85.6048 248.728 100.891 254.251C116.692 260.345 125.945 280.04 130.578 295.214C130.752 295.766 131.033 296.238 131.43 296.631C135.783 297.118 143.693 296.355 148.06 295.012C148.355 294.684 148.439 294.301 148.308 293.865C147.62 289.536 146.731 285.244 145.64 280.994C144.924 277.826 144.044 274.699 143.005 271.62C142.912 271.241 142.86 270.857 142.846 270.463C143.96 267.197 144.98 263.897 145.912 260.565C146.558 257.888 147.026 255.187 147.316 252.449C147.896 246.528 147.447 240.682 145.977 234.916C145.692 234.575 145.406 234.589 145.125 234.954C144.255 236.264 143.295 237.514 142.251 238.693C136.752 244.773 130.27 247.305 122.337 248.489C121.84 248.546 121.344 248.536 120.857 248.466C121.452 247.605 122.35 247.946 123.207 247.698C129.23 245.494 134.459 242.077 138.896 237.448C149.412 226.107 151.837 211.902 144.334 198.133C144.26 197.922 144.231 197.702 144.241 197.478C147.39 198.638 150.578 199.738 153.803 200.782C156.278 201.526 158.792 202.135 161.338 202.607C204.068 210.198 235.749 190.228 269.933 168.682L270.962 168.033C279.143 163.428 289.351 157.376 298.558 155.537ZM275.492 385.208C275.277 384.946 275.01 384.908 274.701 385.091C266.562 389.794 256.467 390.16 247.345 389.196C246.989 389.144 246.727 389.275 246.563 389.584C253.228 400.775 273.686 400.742 275.492 385.208ZM251.8 334.234C248.688 333.434 244.171 331.753 240.998 332.483C236.786 334.023 230.364 339.804 225.932 342.074C224.266 343.108 222.548 344.053 220.788 344.914C215.139 347.634 208.708 349.51 202.39 348.874C200.143 348.579 197.934 348.191 195.758 347.709C195.983 348.462 197.583 349.67 198.191 350.246C210.95 360.107 226.166 370.32 241.452 375.599C244.218 376.559 247.036 377.312 249.909 377.869C255.896 379.119 261.868 379.062 267.826 377.696C279.007 375.154 284.474 362.344 289.828 353.433C290.058 352.796 289.875 352.618 289.272 352.894C282.49 359.063 274.673 363.341 265.823 365.733C259.481 367.249 253.074 367.582 246.605 366.73C238.99 365.681 231.651 363.636 224.593 360.589C221.612 359.283 218.626 358.015 215.621 356.789C215.808 356.541 216.061 356.424 216.379 356.433C221.064 357.416 225.796 357.809 230.584 357.612C231.895 357.537 233.21 357.458 234.52 357.369C235.124 357.332 235.728 357.289 236.327 357.242C241.082 356.728 245.763 355.811 250.364 354.495C252.798 353.831 255.175 352.988 257.487 351.963C262.125 350.386 263.618 337.431 258.171 336.115C256.968 335.708 255.755 335.324 254.534 334.969C253.621 334.725 252.708 334.482 251.8 334.234ZM195.931 337.402C195.477 337.108 194.976 336.991 194.424 337.042C187.913 337.253 184.408 342.78 184.422 348.851C184.59 352.108 185.531 355.127 187.253 357.907C187.543 358.357 188.175 358.207 187.932 357.73C185.657 351.294 187.909 342.602 193.717 338.69C194.424 338.194 195.158 337.763 195.931 337.402ZM274.178 237.71C273.911 237.467 273.677 237.509 273.475 237.832C272.872 239.919 272.174 241.97 271.374 243.987C269.338 249.748 267.629 255.604 266.253 261.557C262.64 273.763 275.979 299.87 282.555 310.579C283.823 312.61 285.12 314.623 286.449 316.607C286.627 317.225 286.491 317.782 286.047 318.278C281.895 323.67 276.738 326.408 270.63 329.053C267.372 331.257 265.86 349.047 272.053 350.83C282.944 353.451 296.859 352.726 305.124 344.221C307.464 341.895 308.995 339.125 309.711 335.905C309.716 335.521 310.048 335.114 309.589 334.87C308.924 335.577 308.236 336.284 307.53 336.981C305.906 338.502 304.015 339.532 301.862 340.07C294.486 342.106 288.579 331.791 281.956 331.374C280.37 331.407 278.801 331.589 277.252 331.931C276.7 331.903 276.63 331.702 277.037 331.323C283.07 328.341 288.382 324.33 291.813 318.437C292.337 317.66 292.346 316.884 291.841 316.107C290.151 313.626 288.532 311.103 286.983 308.529C279.602 295.494 274.589 282.614 270.915 268.123C270.737 267.318 270.691 266.508 270.77 265.689C271.514 259.104 272.258 252.524 273.002 245.938C273.325 243.177 273.719 240.434 274.178 237.71ZM247.747 320.015C247.56 319.276 247.303 319.266 246.98 319.987C246.32 321.424 245.997 322.931 246.016 324.513C245.866 330.681 250.874 332.572 256.214 331.903C258.784 331.529 261.321 330.986 263.82 330.274C264.19 330.171 264.339 329.942 264.26 329.582C259.275 326.048 246.732 331.046 247.747 320.015ZM96.3975 265.25C90.6969 263.555 87.0399 267.442 86.0618 272.604C85.9776 273.002 85.9854 273.308 85.8277 274.008C84.4238 277.753 87.1539 288.778 88.5299 292.855C88.6329 293.15 88.8202 293.365 89.0917 293.51C88.9091 291.614 88.7127 289.7 88.5021 287.772C88.1698 284.215 88.4876 280.718 89.4564 277.283C89.8261 276.225 90.313 275.228 90.9167 274.288C95.7048 265.816 108.108 280.283 110.701 284.72C110.916 285.057 110.893 285.357 110.626 285.633C99.6272 288.877 99.7677 305.829 107.013 312.966C110.191 316.224 114.057 318.031 118.611 318.377C119.645 318.377 121.634 318.84 122.477 318.265C121.377 317.656 120.258 317.062 119.126 316.476C116.729 315.007 114.918 313.008 113.687 310.49C111.244 304.986 112.718 296.496 120.033 296.487C120.249 296.463 120.398 296.351 120.483 296.159C117.267 284.818 108.421 268.896 96.3975 265.25ZM188.817 290.252C183.921 289.976 179.212 291.6 176.638 295.958C176.853 296.182 177.106 296.234 177.387 296.112C181.473 293.674 185.849 291.984 190.516 291.048C190.689 290.968 190.787 290.828 190.81 290.636C190.183 290.393 189.519 290.262 188.817 290.252ZM232.653 270.946C230.215 260.556 209.589 264.197 202.554 267.295C202.432 267.346 202.31 267.393 202.184 267.445C197.71 269.181 193.605 271.559 189.87 274.573C186.79 277.161 182.84 281.814 182.114 285.834C182.348 285.993 182.573 285.965 182.798 285.75C185.503 283.48 188.368 281.425 191.382 279.586C192.107 279.151 192.837 278.729 193.577 278.327C193.811 278.205 194.012 278.247 194.176 278.444C195.117 283.255 196.268 285.558 199.699 288.834C204.496 289.826 221.411 286.681 226.812 284.819C227.575 284.514 227.561 284.318 226.765 284.229C222.974 284.168 219.211 284.458 215.472 285.104C215.228 285.169 215.032 285.099 214.887 284.903C215.392 283.368 215.776 281.804 216.052 280.204C216.464 276.661 215.795 273.333 214.04 270.225C213.782 269.678 213.955 269.406 214.563 269.406C220.62 268.877 226.541 269.556 232.326 271.442C232.536 271.353 232.649 271.184 232.653 270.946ZM211.418 273.941C209.888 269.251 202.226 274.021 207.131 277.409C209.635 278.486 211.867 276.515 211.418 273.941ZM303.818 251.723C300.575 250.534 297.261 250.296 293.877 251.007C292.408 251.25 290.98 251.639 289.59 252.177C283.819 254.456 278.428 259.081 277.136 265.394C277.168 266.775 278.549 264.73 278.91 264.491C279.209 264.028 279.588 263.648 280.047 263.358C280.22 263.489 280.295 263.663 280.281 263.888C280.112 267.449 280.436 270.838 282.28 273.96C282.382 274.203 282.359 274.428 282.205 274.634C281.849 274.685 281.563 274.84 281.339 275.102C283.239 275.748 285.186 276.262 287.18 276.646C291.752 277.269 297.566 277.082 302.05 275.804C302.663 275.673 303.21 275.415 303.697 275.036C303.538 274.844 303.332 274.765 303.07 274.793C301.179 274.816 299.288 274.825 297.397 274.821C297.149 274.858 296.943 274.779 296.779 274.592C297.486 273.113 298.062 271.573 298.506 269.977C299.676 264.838 298.656 259.843 295.043 255.959C295.367 255.266 300.07 255.879 300.945 256.034C306.163 257.026 310.395 259.624 313.638 263.831C313.844 264.079 314.059 264.098 314.284 263.901C313.657 258.06 308.985 253.881 303.818 251.723ZM227.575 253.507C218.925 252.922 210.449 254.625 202.305 257.447C195.832 260.068 191.634 262.133 188.32 268.446C188.409 268.605 188.54 268.699 188.718 268.722C192.547 260.48 212.57 258.332 220.568 256.048C222.904 255.393 225.249 254.784 227.603 254.213C227.869 253.965 227.86 253.731 227.575 253.507ZM240.764 216.438C237.249 217.706 233.734 218.998 230.229 220.318C225.586 221.928 220.896 223.407 216.169 224.755C200.101 229.07 183.565 232 174.494 247.675C171.349 253.277 169.552 259.287 169.089 265.699C169.313 266.008 169.538 265.998 169.772 265.671C169.955 264.96 170.264 264.304 170.699 263.71C172.44 260.789 174.527 258.14 176.956 255.767C181.609 251.307 186.996 248.058 193.113 246.027C206.157 241.515 224.303 241.211 234.156 230.591C237.6 226.782 240.048 222.096 241.087 217.06C241.134 216.766 241.026 216.56 240.764 216.438ZM294.603 263.204C295.679 258.824 289.726 258.206 289.674 262.732C290.273 265.413 293.554 265.872 294.603 263.204ZM308.71 244.483C299.924 231.387 284.348 239.676 280.782 252.439C280.754 252.608 280.814 252.725 280.964 252.79C281.526 252.112 282.036 251.391 282.504 250.638C288.612 242.367 298.815 237.753 307.436 245.672C308.587 246.682 309.608 247.806 310.488 249.037C310.703 248.789 310.741 248.508 310.61 248.195C310.001 246.945 309.369 245.709 308.71 244.483ZM306.762 195.873C289.969 196.167 282.41 214.51 278.937 228.35C278.746 229.183 278.605 230.025 278.516 230.872C285.359 223.529 294.064 213.176 304.431 211.336C312.968 210.091 318.847 218.441 322.619 224.853C322.811 225.12 323.031 225.162 323.279 224.98C323.092 222.986 322.943 220.983 322.826 218.97C321.534 209.525 318.365 196.593 306.762 195.873Z" fill="#F7F3E8"/>
<path d="M223.568 27.2054C256.85 23.1803 294.088 27.6315 311.499 60.1555C320.625 77.4868 323.42 99.2176 326.668 118.346C326.654 118.599 326.532 118.763 326.293 118.838C325.011 118.88 323.724 118.913 322.441 118.95C321.501 118.969 320.565 119.002 319.629 119.039C299.55 120.059 278.974 122.872 259.242 126.766C253.275 127.979 247.321 129.252 241.382 130.59C239.524 130.983 237.68 131.423 235.85 131.919C231.595 132.996 227.35 134.115 223.119 135.271C198.753 142.193 175.098 151.413 152.324 162.45C152.033 162.272 151.86 162.01 151.804 161.664C144.793 138.248 137.763 111.93 137.43 87.4511C137.374 68.7624 144.189 50.1909 162.653 42.7818C178.056 35.9626 194.498 31.8389 211.072 29.0401C215.078 28.2584 219.113 27.6595 223.176 27.2383C223.306 27.2289 223.437 27.2194 223.568 27.2054ZM281.602 56.0688C272 39.0874 249.152 38.1348 232.595 43.818C213.595 50.4157 200.741 68.0467 200.035 88.129C199.882 96.8421 202.561 105.504 208.648 111.88C213.483 116.703 221.981 121.319 226.276 113.144C228.09 108.482 229.89 103.814 231.671 99.1379C231.701 98.865 231.575 98.7284 231.3 98.7284C224.713 99.5445 219.641 96.4898 220.072 89.3708C221.138 74.9608 232.183 59.1069 244.079 51.2481C250.922 46.6732 262.062 42.4067 266.237 52.6321C270.511 64.741 263.606 82.784 255.779 92.4908C251.192 98.1412 243.954 104.477 236.2 104.002C236.056 104.002 235.93 104.054 235.827 104.157C234.515 107.302 233.222 110.458 231.949 113.624C230.915 116.015 229.483 118.134 227.651 119.979C226.726 120.77 225.747 121.477 224.716 122.094C224.76 122.203 224.842 122.272 224.962 122.296C246.891 129.874 270.555 116.763 280.056 96.5171C285.876 84.1953 288.398 68.5216 281.602 56.0688Z" fill="#F7F3E8"/>
<path d="M1573.61 421.577C1569.92 421.577 1566.49 420.979 1563.32 419.782C1560.19 418.539 1557.45 416.813 1555.1 414.604C1552.8 412.349 1551.01 409.702 1549.72 406.664C1548.43 403.627 1547.78 400.313 1547.78 396.723C1547.78 393.132 1548.43 389.818 1549.72 386.781C1551.01 383.743 1552.82 381.119 1555.17 378.91C1557.52 376.655 1560.26 374.929 1563.39 373.732C1566.52 372.489 1569.95 371.868 1573.68 371.868C1577.63 371.868 1581.25 372.558 1584.51 373.939C1587.78 375.274 1590.54 377.276 1592.8 379.946L1587 385.4C1585.25 383.513 1583.29 382.109 1581.13 381.188C1578.97 380.222 1576.62 379.739 1574.09 379.739C1571.56 379.739 1569.23 380.153 1567.12 380.981C1565.05 381.81 1563.23 382.983 1561.66 384.502C1560.14 386.021 1558.95 387.816 1558.07 389.887C1557.24 391.959 1556.83 394.237 1556.83 396.723C1556.83 399.208 1557.24 401.486 1558.07 403.558C1558.95 405.629 1560.14 407.424 1561.66 408.943C1563.23 410.462 1565.05 411.635 1567.12 412.464C1569.23 413.292 1571.56 413.706 1574.09 413.706C1576.62 413.706 1578.97 413.246 1581.13 412.326C1583.29 411.359 1585.25 409.909 1587 407.976L1592.8 413.499C1590.54 416.123 1587.78 418.125 1584.51 419.506C1581.25 420.887 1577.61 421.577 1573.61 421.577ZM1649.81 420.887V372.558H1658.79V413.292H1684.06V420.887H1649.81ZM1760.27 421.577C1753.64 421.577 1748.44 419.713 1744.66 415.985C1740.94 412.257 1739.07 406.871 1739.07 399.829V372.558H1748.05V399.484C1748.05 404.455 1749.11 408.068 1751.22 410.324C1753.39 412.579 1756.42 413.706 1760.34 413.706C1764.25 413.706 1767.26 412.579 1769.38 410.324C1771.5 408.068 1772.56 404.455 1772.56 399.484V372.558H1781.39V399.829C1781.39 406.871 1779.51 412.257 1775.73 415.985C1772 419.713 1766.85 421.577 1760.27 421.577ZM1842.98 420.887V372.558H1865.63C1871.43 372.558 1875.85 373.709 1878.88 376.01C1881.92 378.266 1883.44 381.303 1883.44 385.124C1883.44 387.701 1882.84 389.911 1881.64 391.752C1880.45 393.547 1878.84 394.95 1876.81 395.963C1874.83 396.93 1872.67 397.413 1870.32 397.413L1871.56 394.927C1874.28 394.927 1876.72 395.434 1878.88 396.446C1881.05 397.413 1882.75 398.84 1883.99 400.727C1885.28 402.614 1885.93 404.961 1885.93 407.769C1885.93 411.911 1884.34 415.133 1881.16 417.435C1877.99 419.736 1873.27 420.887 1867.01 420.887H1842.98ZM1851.96 413.845H1866.46C1869.82 413.845 1872.39 413.292 1874.19 412.188C1875.98 411.083 1876.88 409.311 1876.88 406.871C1876.88 404.478 1875.98 402.729 1874.19 401.624C1872.39 400.474 1869.82 399.898 1866.46 399.898H1851.27V392.925H1864.66C1867.79 392.925 1870.18 392.373 1871.84 391.268C1873.54 390.164 1874.4 388.507 1874.4 386.297C1874.4 384.042 1873.54 382.362 1871.84 381.257C1870.18 380.153 1867.79 379.6 1864.66 379.6H1851.96V413.845Z" fill="#F7F3E8"/>
<path d="M1648.38 168.237C1650.01 137.06 1693.35 121.634 1710.2 147.546C1728.19 188.951 1650.46 213.962 1648.38 168.237Z" fill="#F7F3E8"/>
<path d="M1209.14 197.881C1220.32 197.651 1230.75 200.286 1240.42 205.804L1241.36 206.348L1241.37 206.355L1241.38 206.363C1244.64 208.734 1247.82 211.205 1250.92 213.754C1251.04 213.75 1251.22 213.675 1251.48 213.445C1251.77 213.186 1252.11 212.783 1252.48 212.266C1253.23 211.232 1254.09 209.816 1255.06 208.332C1256.02 206.859 1257.09 205.331 1258.24 204.119C1259.38 202.912 1260.63 201.979 1261.98 201.756L1262 201.752H1262.02C1274.41 201.628 1286.8 201.56 1299.19 201.538H1299.24L1299.29 201.556C1299.53 201.646 1299.94 201.679 1300.47 201.682C1301 201.685 1301.58 201.659 1302.17 201.653C1302.75 201.648 1303.34 201.661 1303.82 201.751C1304.25 201.831 1304.68 201.989 1304.91 202.325C1305.18 202.465 1305.39 202.653 1305.52 202.906C1305.66 203.181 1305.68 203.496 1305.61 203.83L1305.61 203.87L1305.59 203.906C1301.15 212.512 1296.61 220.671 1293.27 229.864C1288.52 243.52 1283.88 257.222 1279.35 270.968C1271.98 293.289 1264.75 315.656 1257.65 338.079C1257.6 338.321 1257.5 338.628 1257.42 338.922C1257.33 339.237 1257.25 339.559 1257.21 339.86C1257.18 340.163 1257.2 340.418 1257.28 340.612C1257.36 340.78 1257.49 340.922 1257.74 341.015C1268.31 339.943 1278 336.432 1286.79 330.489C1287.59 329.891 1288.9 328.91 1289.93 327.791C1290.45 327.232 1290.88 326.65 1291.15 326.075C1291.42 325.506 1291.51 324.965 1291.38 324.465C1283.93 307.336 1285.49 291.675 1289.77 274.009L1289.77 274.005C1294.12 257.393 1301.72 242.425 1312.55 229.106C1321.09 217.965 1335.59 207.929 1351.07 202.914C1366.55 197.898 1383.08 197.884 1395.62 206.89L1395.63 206.898L1395.64 206.907C1397.65 208.65 1399.68 210.328 1401.73 211.942C1401.8 211.912 1401.89 211.851 1402 211.737C1402.15 211.571 1402.31 211.327 1402.47 211.015C1402.79 210.391 1403.1 209.548 1403.39 208.654C1403.54 208.208 1403.68 207.753 1403.82 207.311C1403.96 206.869 1404.09 206.438 1404.23 206.044C1404.36 205.651 1404.48 205.289 1404.61 204.985C1404.73 204.688 1404.86 204.427 1404.99 204.245C1405.48 203.39 1406.23 202.92 1407.22 202.822L1407.23 202.821L1407.24 202.82C1422.28 202.674 1437.31 202.629 1452.34 202.696C1453.6 202.65 1454.84 202.801 1456.05 203.122L1456.25 203.175L1456.26 203.377C1456.3 204.144 1456.2 204.888 1455.94 205.618C1450.98 220.956 1445.72 236.214 1440.5 251.477C1435.27 266.733 1430.08 281.997 1425.22 297.361L1425.14 297.765C1424.75 299.767 1424.86 301.737 1425.5 303.679C1427.46 306.203 1430.08 306.913 1433.02 306.432C1436 305.946 1439.29 304.239 1442.48 301.947C1448.85 297.371 1454.71 290.544 1456.75 286.819C1465.57 260.444 1474.37 234.069 1483.18 207.682L1483.19 207.659L1483.2 207.637C1483.45 207.168 1483.63 206.635 1483.79 206.082C1483.95 205.54 1484.11 204.969 1484.34 204.469C1484.56 203.966 1484.87 203.504 1485.34 203.189C1485.82 202.873 1486.44 202.725 1487.25 202.786C1502.66 202.629 1518.06 202.663 1533.45 202.899H1533.47L1533.65 202.936C1534.02 203.022 1534.32 203.184 1534.53 203.441C1534.77 203.736 1534.85 204.116 1534.82 204.541L1534.82 204.573L1534.81 204.605C1532.84 210.838 1530.87 217.082 1528.91 223.326L1528.9 223.336C1528.83 223.532 1528.83 223.691 1528.86 223.822C1528.88 223.895 1528.91 223.967 1528.97 224.04C1532.99 220.775 1537.01 217.479 1541.03 214.159L1541.03 214.153L1541.04 214.147C1544.88 211.384 1548.89 208.869 1553.04 206.602C1560.9 202.258 1572.18 199.298 1582.46 200.009C1592.58 200.708 1601.79 204.977 1605.76 215.054L1605.95 215.538L1605.95 215.553C1607.98 222.109 1608.01 228.681 1606.03 235.282L1606.03 235.291L1606.02 235.299C1598.39 256.273 1590.98 277.326 1583.78 298.447C1583.4 300.811 1583.56 302.563 1584.08 303.818C1584.6 305.067 1585.5 305.846 1586.64 306.255C1587.8 306.669 1589.23 306.711 1590.81 306.45C1592.39 306.19 1594.1 305.631 1595.82 304.863C1603.46 300.618 1609.53 294.746 1614.03 287.245C1623.72 259.463 1633.38 231.68 1643.02 203.887L1643.03 203.846L1643.06 203.811C1643.51 203.212 1644.11 202.856 1644.86 202.755L1644.87 202.753H1644.89C1646.6 202.736 1650.33 202.637 1655.01 202.527C1659.7 202.417 1665.34 202.296 1670.88 202.236C1676.41 202.175 1681.84 202.175 1686.1 202.307C1688.23 202.373 1690.07 202.472 1691.49 202.614C1692.2 202.685 1692.81 202.767 1693.29 202.862C1693.65 202.932 1693.96 203.011 1694.2 203.105L1694.41 203.205L1694.43 203.215L1694.45 203.229C1694.67 203.398 1694.83 203.606 1694.89 203.855C1694.96 204.1 1694.93 204.355 1694.84 204.608L1694.84 204.609C1685.42 232.592 1675.84 260.508 1666.1 288.379L1666.09 288.391C1665.04 291.017 1664.15 293.819 1663.66 296.423C1663.18 299.033 1663.11 301.416 1663.66 303.224C1663.94 304.124 1664.37 304.873 1664.97 305.44C1665.57 306.006 1666.36 306.403 1667.37 306.581C1669.41 306.937 1672.37 306.4 1676.52 304.537C1682.42 301.27 1687.5 297.021 1691.77 291.787L1691.79 291.772C1692.05 291.498 1692.36 291.361 1692.7 291.343C1693.04 291.326 1693.38 291.421 1693.72 291.577C1694.4 291.887 1695.13 292.476 1695.82 293.123C1696.51 293.774 1697.19 294.507 1697.76 295.123C1698.05 295.432 1698.31 295.711 1698.54 295.939C1698.71 296.113 1698.86 296.249 1698.97 296.345L1699.08 296.427L1699.11 296.449L1699.14 296.48C1699.87 297.377 1700.12 298.407 1699.9 299.545L1699.9 299.583L1699.88 299.618C1685.38 328.693 1655.99 348.036 1622.9 337.959L1622.89 337.956L1622.88 337.951C1616.23 335.321 1611.82 330.599 1609.67 323.813L1609.67 323.799L1609.66 323.786C1609.23 321.773 1608.84 319.78 1608.48 317.809C1608.23 317.875 1608.01 317.999 1607.81 318.18L1607.08 318.963C1591.83 335.025 1569.48 344.078 1547.37 339.48L1546.3 339.247C1541.2 338.094 1537.39 335.893 1534.63 332.98C1531.88 330.067 1530.19 326.457 1529.32 322.505C1527.59 314.609 1529.11 305.321 1531.9 297.385C1537.92 279.601 1544.2 261.918 1550.71 244.314C1551.57 240.572 1551.15 238.371 1550.09 237.195C1549.02 236.021 1547.22 235.761 1545.03 236.151C1542.86 236.539 1540.4 237.557 1538.13 238.815C1535.86 240.072 1533.82 241.557 1532.47 242.864L1532.46 242.873C1524 250.299 1518.08 259.38 1514.72 270.12L1514.72 270.127C1507.1 292.517 1499.49 314.885 1491.86 337.253L1491.83 337.354L1491.74 337.406C1490.7 337.994 1489.58 338.24 1488.38 338.15C1473.47 338.139 1458.54 338.151 1443.63 338.162H1443.55L1443.48 338.116C1443.02 337.814 1442.7 337.437 1442.54 336.98C1442.38 336.525 1442.38 336.02 1442.53 335.479L1442.53 335.47L1442.53 335.463C1444.14 330.728 1445.54 325.937 1446.7 321.094C1446.67 321.086 1446.63 321.085 1446.6 321.09C1446.53 321.101 1446.43 321.147 1446.32 321.271L1446.31 321.28C1438.49 329.298 1423.24 337.511 1408.43 340.24C1401.03 341.605 1393.71 341.603 1387.47 339.497C1381.23 337.389 1376.09 333.173 1373.04 326.145L1373.04 326.13L1373.03 326.113C1372.44 324.092 1371.78 322.13 1371.04 320.219C1355.17 336.284 1336.75 343.968 1313.8 339.609L1313.78 339.605C1310.79 338.812 1307.82 338.041 1304.85 337.326C1304.71 337.356 1304.55 337.434 1304.35 337.579C1304.13 337.738 1303.89 337.96 1303.64 338.234C1303.13 338.781 1302.59 339.507 1302.05 340.275C1301.52 341.025 1300.96 341.859 1300.48 342.531C1300 343.198 1299.55 343.782 1299.18 344.114C1292.6 352.255 1284.29 356.78 1275.3 359.945C1270.81 361.529 1266.14 362.773 1261.44 363.96C1256.75 365.145 1252.02 366.27 1247.36 367.619C1247.33 367.639 1247.26 367.703 1247.14 367.85C1247.01 368.002 1246.86 368.215 1246.69 368.482C1246.34 369.015 1245.92 369.75 1245.43 370.626C1244.46 372.38 1243.27 374.682 1242.02 377.049C1240.78 379.412 1239.49 381.839 1238.33 383.832C1237.75 384.829 1237.21 385.721 1236.71 386.444C1236.24 387.145 1235.8 387.703 1235.42 388.044C1207.66 427.797 1163.1 443.892 1115.75 435.055C1094.49 431.351 1080.51 419.474 1076.82 405.519C1073.13 391.543 1079.81 375.616 1099.61 363.9L1099.62 363.894C1119.88 352.977 1141.21 348.853 1164.04 348.166H1164.04C1175.59 348.121 1187.12 348.4 1198.64 348.983C1198.75 348.925 1198.87 348.826 1199.01 348.674C1199.16 348.502 1199.32 348.276 1199.48 348.007C1199.79 347.469 1200.1 346.783 1200.38 346.061C1200.67 345.339 1200.94 344.596 1201.19 343.935C1201.43 343.299 1201.66 342.727 1201.86 342.357C1204.66 335.11 1207.42 327.85 1210.12 320.58C1210.18 320.398 1210.2 320.264 1210.19 320.171C1210.19 320.082 1210.17 320.051 1210.16 320.043C1210.15 320.035 1210.13 320.011 1210.04 320.004C1209.96 319.999 1209.85 320.011 1209.71 320.044C1200.42 331.208 1184.87 339.281 1169.91 340.596C1154.91 341.916 1140.44 336.433 1133.51 320.408L1133.51 320.397L1133.51 320.384C1125.73 297.07 1131.17 266.886 1145.26 242.326C1159.35 217.766 1182.14 198.752 1209.14 197.881H1209.14ZM1174.18 370.139C1165.23 370.358 1153.13 371.655 1142.95 375.716C1132.78 379.777 1124.47 386.634 1123.24 398L1123.23 398.009V398.016C1122.92 404.048 1125.79 408.472 1130.01 411.411C1134.22 414.344 1139.77 415.806 1144.89 415.954H1144.92C1167.3 414.672 1178.86 395.222 1187.35 377.182C1188.25 375.533 1188.84 373.802 1189.11 371.969L1189.14 371.807L1189.01 371.705C1188.73 371.491 1188.33 371.33 1187.87 371.202C1187.4 371.073 1186.83 370.97 1186.21 370.888C1184.96 370.723 1183.45 370.633 1181.91 370.571C1181.14 370.541 1180.37 370.517 1179.61 370.493C1178.86 370.47 1178.12 370.447 1177.44 370.419C1176.08 370.362 1174.94 370.285 1174.24 370.144L1174.21 370.137L1174.18 370.139ZM1747.42 199.749C1762.85 200.177 1776.1 202.564 1789.38 203.773C1802.67 204.983 1816.05 205.024 1831.83 200.783L1831.85 200.775L1831.88 200.773C1832.78 200.718 1833.71 201.302 1834.54 202.139C1835.38 202.989 1836.16 204.158 1836.78 205.4C1837.4 206.642 1837.86 207.977 1838.02 209.163C1838.18 210.332 1838.06 211.432 1837.44 212.129C1813.93 242.589 1790.31 272.969 1766.58 303.271C1766.33 303.686 1766.27 304.02 1766.32 304.288C1766.38 304.546 1766.56 304.801 1766.93 305.044C1785.43 309.021 1805.85 311.254 1820.06 296.395C1820.4 295.96 1820.65 295.474 1820.81 294.936C1822.69 271.176 1831.96 246.692 1847.36 228.507C1862.77 210.309 1884.32 198.41 1910.73 199.884L1910.73 199.885C1920.36 200.643 1928.41 204.593 1934.88 211.74C1935.19 211.827 1935.43 211.79 1935.63 211.676C1935.86 211.547 1936.07 211.302 1936.28 210.939C1936.68 210.206 1936.98 209.119 1937.32 207.936C1937.64 206.775 1938.01 205.533 1938.56 204.567C1939.11 203.596 1939.88 202.847 1941.03 202.776L1941.05 202.775C1956.5 202.64 1971.95 202.584 1987.4 202.618H1987.43L1987.46 202.624C1988.41 202.81 1989.1 203.198 1989.41 203.85C1989.7 204.49 1989.57 205.284 1989.14 206.177C1979.32 236.621 1968.51 266.842 1958.97 297.352C1958.22 301.099 1958.67 303.436 1959.77 304.797C1960.87 306.153 1962.69 306.626 1964.88 306.473C1967.06 306.321 1969.55 305.548 1971.91 304.493C1974.27 303.439 1976.47 302.113 1978.07 300.868C1981.29 298.168 1984.3 295.232 1987.07 292.062L1987.08 292.052L1987.09 292.043C1987.49 291.652 1987.94 291.42 1988.42 291.401C1988.9 291.382 1989.36 291.578 1989.79 291.94L1989.82 291.962L1989.84 291.989C1990.11 292.353 1990.63 292.821 1991.3 293.371C1991.95 293.911 1992.71 294.52 1993.41 295.146C1994.11 295.771 1994.76 296.431 1995.19 297.086C1995.61 297.737 1995.84 298.443 1995.58 299.12L1995.58 299.13L1995.58 299.14C1981.89 328.006 1948.91 350.091 1916.79 336.938L1916.77 336.933L1916.76 336.925C1910.62 333.646 1906.95 328.582 1905.79 321.729L1905.75 321.561C1905.64 321.236 1905.44 321.011 1905.13 320.867C1902.15 323.329 1899.15 325.792 1896.15 328.254L1896.14 328.257C1885.22 336.943 1870.8 341.745 1857.41 340.847C1844.01 339.948 1831.63 333.337 1824.85 319.202L1824.85 319.191C1824.76 318.996 1824.66 318.867 1824.53 318.785C1824.43 318.718 1824.3 318.674 1824.14 318.659C1821.42 321.689 1818.6 324.664 1815.69 327.582L1815.68 327.589C1801.69 340.803 1784.26 340.66 1766.19 338.094C1761.67 337.453 1757.11 336.658 1752.54 335.881C1747.98 335.104 1743.41 334.343 1738.89 333.768C1729.83 332.618 1720.95 332.211 1712.56 333.882L1712.55 333.883C1706.87 334.951 1701.24 336.153 1695.66 337.502L1695.6 337.519L1695.53 337.502C1694.72 337.301 1693.98 336.771 1693.32 336.079C1692.66 335.385 1692.06 334.508 1691.54 333.581C1690.49 331.726 1689.73 329.632 1689.35 328.282L1689.32 328.191L1689.35 328.104C1690 326.445 1690.89 324.933 1692.05 323.571C1716.63 293.802 1741.42 264.213 1766.44 234.793C1766.58 234.583 1766.59 234.448 1766.56 234.359C1766.52 234.253 1766.42 234.125 1766.19 233.99C1765.73 233.719 1764.96 233.517 1764.06 233.367C1763.18 233.218 1762.22 233.125 1761.42 233.053C1761.02 233.016 1760.66 232.985 1760.37 232.954C1760.12 232.927 1759.91 232.898 1759.76 232.86C1749.95 232.184 1741.97 233.323 1735.34 236.754C1728.7 240.186 1723.37 245.928 1718.89 254.516L1718.84 254.611L1718.73 254.65C1718.11 254.881 1717.12 254.869 1716.04 254.706C1714.94 254.541 1713.68 254.212 1712.48 253.769C1711.28 253.326 1710.11 252.764 1709.21 252.125C1708.31 251.494 1707.61 250.752 1707.43 249.935C1700.98 222.876 1719.84 199.84 1747.41 199.749H1747.42ZM1122.26 197.887C1130.81 196.493 1139.48 198.653 1147.35 206.514L1147.64 206.805C1150.49 209.844 1150.98 213.657 1150 217.747C1148.99 221.957 1146.4 226.493 1143.18 230.867C1137.14 239.073 1128.79 246.795 1124.12 250.882L1123.24 251.65C1117.2 256.877 1110.57 261.145 1103.34 264.475L1103.3 264.489L1103.27 264.496C1101.17 264.873 1099.53 263.338 1098.59 261.449C1097.64 259.554 1097.3 257.154 1097.87 255.54L1097.88 255.532C1098.55 253.794 1100.5 249.099 1101.23 244.997C1101.61 242.937 1101.66 241.087 1101.15 239.843C1100.9 239.232 1100.51 238.779 1099.96 238.507C1099.41 238.235 1098.67 238.129 1097.67 238.278C1091.52 240.139 1085.85 244.996 1081.11 250.844C1076.37 256.687 1072.58 263.49 1070.17 269.192L1067.37 277.515C1060.84 296.94 1054.45 316.411 1048.21 335.942C1048.06 336.687 1047.65 337.195 1047.1 337.527C1046.56 337.857 1045.88 338.007 1045.19 338.075C1044.5 338.142 1043.76 338.13 1043.09 338.115C1042.41 338.101 1041.8 338.085 1041.32 338.138L1041.31 338.14H1041.29C1026.6 338.253 1011.92 338.129 997.261 337.758L997.164 337.755L997.09 337.694C996.751 337.419 996.513 337.095 996.389 336.721C996.266 336.348 996.263 335.945 996.363 335.522L996.365 335.512L996.368 335.503C1010.12 291.24 1024.2 247.065 1038.59 203.004L1038.61 202.956L1038.64 202.917C1039.58 201.706 1040.86 201.173 1042.43 201.336C1052.84 201.361 1063.26 201.349 1073.67 201.289L1084.08 201.212C1085.91 201.099 1087.69 201.318 1089.43 201.867L1089.69 201.948L1089.62 202.207C1087.63 209.574 1085.51 216.897 1083.23 224.187C1083.29 224.384 1083.35 224.436 1083.37 224.447C1083.38 224.455 1083.43 224.47 1083.54 224.421C1083.66 224.372 1083.8 224.28 1083.95 224.165C1084.07 224.072 1084.23 223.94 1084.35 223.848C1088.47 218.949 1093.02 214.488 1098 210.467C1105.35 204.202 1113.74 199.278 1122.26 197.887ZM1379.12 225.526L1379.11 225.527C1373.48 226.096 1368.2 229.31 1363.46 234.067C1358.72 238.826 1354.5 245.151 1350.98 251.992C1344.16 265.24 1339.96 280.485 1339.75 290.159L1339.74 291.077C1339.55 295.023 1340.22 298.974 1342.07 302.025C1343.94 305.093 1347 307.231 1351.5 307.536L1351.51 307.537C1357.88 307.773 1363.09 305.039 1367.42 300.563C1371.74 296.092 1375.2 289.874 1378.08 283.106C1380.96 276.335 1383.27 268.992 1385.28 262.26C1387.3 255.52 1389.01 249.405 1390.72 245.06L1390.72 245.043L1390.73 245.026C1391.87 240.549 1391.75 235.665 1389.96 231.898C1388.15 228.109 1384.66 225.475 1379.13 225.526H1379.12ZM1915.7 225.511C1913.08 225.094 1910.03 225.568 1906.61 227.184L1906.6 227.191C1896.99 232.331 1889 243.536 1883.32 255.944C1877.82 267.972 1874.47 281.185 1873.94 291.23L1873.9 292.192V292.202C1873.91 299.372 1876.66 304.172 1880.96 306.288C1885.24 308.399 1890.96 307.791 1896.81 304.359L1896.81 304.36L1896.82 304.351C1905.38 298.671 1910.51 288.347 1914.42 277.279C1916.38 271.74 1918.05 265.996 1919.69 260.536C1921.32 255.071 1922.94 249.891 1924.8 245.46L1924.81 245.44L1924.81 245.419C1926.38 239.125 1925.31 232.948 1922.08 229.142C1920.47 227.235 1918.31 225.928 1915.7 225.511ZM1228.31 226.11C1224.7 224.786 1220.29 225.19 1216.26 227.151L1216.24 227.159C1206.56 232.51 1198.69 242.986 1193.09 254.709C1187.5 266.437 1184.16 279.454 1183.59 289.936V289.939C1183.4 294.437 1184.26 297.918 1185.86 300.431C1187.46 302.948 1189.79 304.475 1192.46 305.08C1197.62 306.249 1204.04 303.973 1209.15 298.872L1209.64 298.37C1216.16 292.541 1222.68 280.863 1227.54 268.648C1232.41 256.419 1235.63 243.579 1235.51 235.423V235.403L1235.51 235.382L1235.43 234.929C1234.55 230.309 1231.82 227.397 1228.31 226.11Z" fill="#F7F3E8"/>
<path d="M791.79 83.2422C713.328 110.437 660.251 183.109 657.334 265.885C656.703 301.799 667.763 337.5 692.899 363.783C712.867 383.664 747.959 402.69 765.696 368.992C773.185 349.775 780.618 330.535 787.972 311.261C788.096 310.136 787.578 309.574 786.441 309.574C759.243 312.938 738.296 300.348 740.075 271.004C744.479 211.609 790.089 146.261 839.214 113.868C867.47 95.0111 913.475 77.4252 930.717 119.573C948.364 169.484 919.849 243.855 887.527 283.864C868.585 307.155 838.696 333.269 806.678 331.311C806.081 331.311 805.563 331.525 805.135 331.953C799.718 344.914 794.38 357.921 789.121 370.972C784.853 380.828 778.94 389.559 771.372 397.165C767.554 400.428 763.511 403.342 759.254 405.885C759.435 406.335 759.772 406.616 760.268 406.718C850.825 437.951 948.545 383.911 987.781 300.46C1011.81 249.672 1022.23 185.067 994.167 133.738C954.513 63.7437 860.161 59.8169 791.79 83.2422Z" fill="#F7F3E8"/>
</svg>
